<svg width="479" height="361" viewBox="0 0 479 361" fill="none" xmlns="http://www.w3.org/2000/svg">
<circle cx="175" cy="175" r="175" fill="url(#paint0_linear)"/>
<path d="M303.228 23.627C311.779 18.5627 319.063 22.6774 319.063 32.4894L319.697 249.302C319.697 259.114 312.729 271.458 304.178 276.206L171.795 352.802C163.244 357.867 155.96 353.752 155.96 343.94L155.01 127.127C155.01 117.315 161.977 104.971 170.528 100.224L303.228 23.627Z" fill="url(#paint1_linear)" fill-opacity="0.7"/>
<path d="M319.38 29.0076C327.931 23.9433 335.215 28.058 335.215 37.87L335.532 254.683C335.532 264.495 328.565 276.839 320.014 281.586L187.63 358.183C179.079 363.247 171.795 359.133 171.795 349.321L171.162 132.824C171.162 123.012 178.129 110.668 186.68 105.921L319.38 29.0076Z" fill="url(#paint2_linear)" fill-opacity="0.6"/>
<path d="M224.051 304.692V311.339L303.228 265.761V259.114L224.051 304.692Z" fill="#F7F5F7" fill-opacity="0.8"/>
<path d="M196.815 268.61V275.256L322.23 202.774V196.128L196.815 268.61Z" fill="#F7F5F7" fill-opacity="0.8"/>
<path d="M196.815 296.146V302.476L322.23 230.311V223.664L196.815 296.146Z" fill="#F7F5F7" fill-opacity="0.8"/>
<g opacity="0.8">
<path d="M259.206 95.7919C286.759 79.9662 308.929 92.6268 309.245 124.278C309.245 155.93 287.076 194.228 259.522 210.054C231.969 225.88 209.799 213.219 209.483 181.567C209.483 149.916 231.969 111.618 259.206 95.7919Z" fill="url(#paint3_linear)" fill-opacity="0.8"/>
</g>
<g opacity="0.8">
<path d="M261.423 112.884C281.692 101.173 297.844 110.669 297.844 133.774C297.844 156.88 281.692 185.05 261.423 196.761C241.154 208.472 225.002 198.976 225.002 175.871C225.002 152.765 241.47 124.595 261.423 112.884Z" fill="url(#paint4_linear)" fill-opacity="0.8"/>
</g>
<path d="M245.904 166.059C246.221 166.059 246.221 165.742 245.904 166.059C248.121 164.793 249.388 162.261 250.655 159.412C251.922 156.88 253.505 154.031 256.039 152.449C263.64 148.018 269.024 139.155 269.34 138.522C270.291 143.27 273.774 141.371 276.308 142.32C278.842 143.27 277.258 144.536 283.275 143.903C283.275 143.903 283.592 143.903 283.592 143.586C285.809 142.32 288.026 143.27 288.026 146.119C288.026 148.967 286.126 152.132 283.909 153.398C283.909 153.398 283.592 153.398 283.592 153.715C281.692 164.476 273.774 178.087 264.907 183.151C255.722 188.532 248.438 183.784 246.221 175.238C245.904 175.554 245.904 175.554 245.587 175.871C243.371 177.137 241.154 176.187 241.154 173.339C241.154 170.49 243.054 167.325 245.271 166.059C245.587 166.059 245.904 166.059 245.904 166.059ZM264.907 176.82C267.757 175.238 270.291 171.123 270.291 167.642L259.523 173.655C259.523 177.137 261.739 178.403 264.907 176.82ZM275.991 153.082C275.991 150.55 274.408 149.6 272.191 150.866C269.974 152.132 268.39 154.981 268.39 157.197C268.39 159.412 269.974 160.678 272.191 159.412C274.408 158.463 272.507 151.183 275.991 153.082ZM257.306 168.275C259.523 167.009 261.106 164.16 261.106 161.944C261.106 159.412 259.523 158.463 257.306 159.729C255.089 160.995 253.505 163.843 253.505 166.059C253.505 168.591 255.089 169.541 257.306 168.275ZM253.188 159.412C253.188 159.729 253.822 159.729 254.455 159.412C255.089 159.096 255.722 158.463 256.355 157.83C257.939 156.247 258.889 154.664 258.889 154.031C258.889 153.715 258.256 153.715 257.622 154.031C256.989 154.348 256.355 154.981 255.722 155.614C254.139 157.197 253.188 158.779 253.188 159.412ZM273.458 145.169C272.824 145.169 272.191 145.486 271.557 145.802C270.924 146.119 270.291 146.752 270.291 147.068C269.974 148.018 271.241 148.334 272.824 148.018C273.458 148.018 274.091 147.701 274.724 147.385C275.358 147.068 275.991 146.435 275.991 146.119C276.308 145.169 275.041 144.853 273.458 145.169Z" fill="#F9C0AA"/>
<path d="M272.508 153.398C271.557 154.031 270.607 155.298 270.607 156.564C270.607 156.88 270.607 157.197 270.607 157.197C270.607 156.88 270.924 156.564 271.241 156.247C271.557 155.931 271.874 156.247 271.874 156.564C271.874 156.88 271.557 157.513 271.557 157.513C271.874 157.513 271.874 157.513 272.191 157.197C273.141 156.564 274.091 155.298 274.091 154.031C274.091 153.082 273.458 152.765 272.508 153.398Z" fill="#171737"/>
<path d="M275.991 153.082C275.991 155.298 274.408 158.463 272.191 159.412C269.974 160.678 268.39 159.729 268.39 157.197C268.39 154.665 269.974 151.816 272.191 150.866C274.408 149.917 275.991 150.866 275.991 153.082ZM272.507 158.463C274.091 157.513 275.358 155.614 275.358 153.715C275.358 152.132 274.091 151.183 272.507 152.132C270.924 153.082 269.657 154.981 269.657 156.88C269.657 158.463 270.924 159.412 272.507 158.463Z" fill="#F7F5F7"/>
<path d="M275.041 153.715C275.041 155.297 273.774 157.513 272.191 158.462C270.607 159.412 269.34 158.779 269.34 156.88C269.34 155.297 270.607 153.082 272.191 152.132C273.774 151.499 275.041 152.132 275.041 153.715ZM270.607 157.513C270.607 158.146 270.924 158.146 271.241 157.829C271.241 157.829 271.557 157.829 271.557 157.513C271.874 157.513 271.874 157.513 272.191 157.196C273.141 156.563 274.091 155.297 274.091 154.031C274.091 152.765 273.141 152.448 272.191 153.082C271.241 153.715 270.291 154.981 270.291 156.247C270.291 156.563 270.291 156.88 270.291 156.88C270.607 157.196 270.607 157.196 270.607 157.513Z" fill="#4B6987"/>
<path d="M271.557 155.93C271.241 156.247 270.924 156.563 270.924 156.88V157.196C270.924 157.83 271.241 157.83 271.557 157.513C271.557 157.513 271.874 157.513 271.874 157.196C272.191 156.88 272.191 156.563 272.191 156.247C272.191 155.93 271.874 155.93 271.557 155.93Z" fill="#F7F5F7"/>
<path d="M259.522 173.655C259.522 177.137 262.056 178.403 264.906 176.82C267.757 175.238 270.29 171.123 270.29 167.641L259.522 173.655Z" fill="#F7F5F7"/>
<path d="M256.355 164.793C256.039 165.109 255.722 165.426 255.722 165.742V166.059C255.722 166.692 256.039 166.692 256.355 166.375C256.355 166.375 256.672 166.375 256.672 166.059C256.989 165.742 257.306 165.426 256.989 165.109C256.989 164.793 256.672 164.476 256.355 164.793Z" fill="#F7F5F7"/>
<path d="M257.306 161.944C256.355 162.577 255.405 163.843 255.405 165.109C255.405 165.425 255.405 165.742 255.405 165.742C255.405 165.425 255.722 165.109 256.039 164.792C256.355 164.476 256.672 164.792 256.672 165.109C256.672 165.425 256.355 166.058 256.355 166.058C256.672 166.058 256.672 166.058 256.989 165.742C257.939 165.109 258.889 163.843 258.889 162.577C258.889 161.944 258.256 161.627 257.306 161.944Z" fill="#171737"/>
<path d="M260.789 161.944C260.789 164.159 259.206 167.325 256.989 168.274C254.772 169.54 253.188 168.591 253.188 166.059C253.188 163.526 254.772 160.678 256.989 159.728C259.206 158.462 260.789 159.412 260.789 161.944ZM257.306 167.325C258.889 166.375 260.156 164.476 260.156 162.577C260.156 160.994 258.889 160.045 257.306 160.994C255.722 161.944 254.455 163.843 254.455 165.742C254.455 167.325 255.722 167.958 257.306 167.325Z" fill="#F7F5F7"/>
<path d="M255.722 141.687C246.221 148.651 245.587 160.362 245.904 166.059H246.221C248.121 164.793 249.388 162.261 250.655 159.729C251.922 157.197 253.505 154.348 256.039 152.765C263.956 148.334 269.024 139.472 269.34 138.839C270.291 143.586 273.774 141.687 276.308 142.637C278.842 143.586 277.258 144.853 283.275 144.219C283.275 143.586 282.959 142.953 282.959 142.004C281.692 133.141 279.158 130.609 274.091 131.242C273.458 132.192 272.824 132.825 272.191 133.775C271.874 134.091 267.123 137.256 263.323 139.472C262.056 140.105 260.789 140.738 259.839 141.371C258.572 142.32 256.989 142.32 255.722 141.687Z" fill="#FA905A"/>
<path d="M283.592 144.219C283.592 143.586 283.592 142.953 283.276 142.004C283.592 142.953 283.592 143.586 283.592 144.219Z" fill="#877348"/>
<path d="M257.622 154.348C256.989 154.664 256.356 155.297 255.722 155.93C254.139 157.513 253.188 159.096 253.188 159.729C253.188 160.045 253.822 160.045 254.455 159.729C255.089 159.412 255.722 158.779 256.356 158.146C257.939 156.564 258.889 154.981 258.889 154.348C258.889 153.715 258.256 154.031 257.622 154.348Z" fill="#DE791E"/>
<path d="M259.839 162.577C259.839 164.16 258.572 166.376 256.989 167.325C255.405 168.275 254.138 167.642 254.138 165.743C254.138 164.16 255.405 161.944 256.989 160.995C258.572 160.045 259.839 160.678 259.839 162.577ZM255.405 166.059C255.405 166.692 255.722 166.692 256.039 166.376C256.039 166.376 256.355 166.376 256.355 166.059C256.672 166.059 256.672 166.059 256.989 165.743C257.939 165.11 258.889 163.843 258.889 162.577C258.889 161.311 257.939 160.995 256.989 161.628C256.039 162.261 255.089 163.527 255.089 164.793C255.089 165.11 255.089 165.426 255.089 165.426C255.405 166.059 255.405 166.059 255.405 166.059Z" fill="#4B6987"/>
<path d="M271.557 145.802C270.924 146.119 270.29 146.752 270.29 147.068C269.974 148.018 271.241 148.334 272.824 148.018C273.458 148.018 274.091 147.701 274.724 147.385C275.358 147.068 275.991 146.435 275.991 146.119C276.308 145.169 275.041 144.853 273.458 145.169C272.824 145.486 272.191 145.486 271.557 145.802Z" fill="#DE791E"/>
<path d="M253.188 137.573C253.822 141.687 255.722 144.536 259.206 143.27C260.473 142.637 261.74 141.687 263.006 140.738C267.124 138.522 271.874 135.041 271.874 135.041C272.508 134.091 273.141 133.141 273.774 132.508C280.425 122.063 274.408 118.265 265.54 121.43C256.039 124.279 252.555 133.141 253.188 137.573Z" fill="#FA905A"/>
<g opacity="0.7">
<g opacity="0.7">
<path opacity="0.7" d="M157.226 120.164C152.159 123.013 148.359 129.976 148.359 135.673C148.359 141.37 152.476 143.586 157.226 140.737C162.294 137.889 166.094 130.925 166.094 125.228C166.094 119.531 161.977 116.999 157.226 120.164Z" fill="#F7F5F7"/>
</g>
<g opacity="0.7">
<path opacity="0.7" d="M106.237 149.283C101.486 152.132 97.3691 159.095 97.3691 164.792C97.3691 170.489 101.486 172.705 106.237 169.856C111.304 167.008 115.105 160.044 115.105 154.347C115.421 148.65 111.304 146.434 106.237 149.283Z" fill="#F7F5F7"/>
</g>
<g opacity="0.7">
<path opacity="0.7" d="M131.89 134.724C126.823 137.573 123.022 144.536 123.022 150.233C123.022 155.93 127.139 158.146 131.89 155.297C136.957 152.449 140.758 145.485 140.758 139.788C140.758 134.091 136.641 131.875 131.89 134.724Z" fill="#F7F5F7"/>
</g>
</g>
<path d="M184.463 146.751L197.131 159.412L170.211 166.059L79.3167 218.6L79 131.875L184.146 71.1042L184.463 146.751ZM131.89 155.297C136.957 152.449 140.758 145.485 140.758 139.788C140.758 134.091 136.641 131.875 131.89 134.724C126.823 137.572 123.022 144.536 123.022 150.233C122.705 155.93 126.823 158.146 131.89 155.297ZM106.553 169.857C111.621 167.008 115.421 160.045 115.421 154.348C115.421 148.65 111.304 146.435 106.553 149.283C101.486 152.132 97.369 159.095 97.369 164.793C97.369 170.49 101.486 172.705 106.553 169.857ZM157.226 140.737C162.294 137.889 166.094 130.926 166.094 125.228C166.094 119.531 161.977 117.315 157.226 120.164C152.159 123.013 148.359 129.976 148.359 135.673C148.359 141.054 152.159 143.586 157.226 140.737Z" fill="#FA4664" fill-opacity="0.7"/>
<path d="M467.282 49.8977C473.933 53.6959 479 62.8748 479 70.4711L478.683 130.609C478.683 138.205 473.299 141.054 466.648 137.256L407.424 103.072L387.155 117.632L385.572 90.4116L383.355 89.1455C376.704 85.3473 371.636 76.1684 371.636 68.5721L371.953 8.43425C371.953 0.837892 377.337 -2.01074 383.988 1.47092L467.282 49.8977ZM462.531 121.747L462.848 58.7601L388.739 16.0306V79.3336L462.531 121.747Z" fill="#FA4664" fill-opacity="0.7"/>
<path d="M462.531 58.76L425.477 68.8885L388.739 16.0305L462.531 58.76Z" fill="url(#paint5_linear)" fill-opacity="0.7"/>
<path d="M462.531 58.76V121.746L388.739 79.3335V16.0305L425.477 68.8885L462.531 58.76Z" fill="url(#paint6_linear)" fill-opacity="0.7"/>
<defs>
<linearGradient id="paint0_linear" x1="65.5" y1="3.91592e-06" x2="280.5" y2="289.5" gradientUnits="userSpaceOnUse">
<stop stop-color="#F8D9E9" stop-opacity="0.56"/>
<stop offset="1" stop-color="#F8D9E9" stop-opacity="0"/>
</linearGradient>
<linearGradient id="paint1_linear" x1="358.31" y1="264.04" x2="146.159" y2="130.817" gradientUnits="userSpaceOnUse">
<stop stop-color="#22195B"/>
<stop offset="1" stop-color="#5A3CB2"/>
</linearGradient>
<linearGradient id="paint2_linear" x1="170.926" y1="127.413" x2="334.772" y2="259.155" gradientUnits="userSpaceOnUse">
<stop stop-color="#9083DD"/>
<stop offset="1" stop-color="#5A3CB2"/>
</linearGradient>
<linearGradient id="paint3_linear" x1="315.523" y1="184.38" x2="197.493" y2="118.009" gradientUnits="userSpaceOnUse">
<stop stop-color="#BF2E4E"/>
<stop offset="1" stop-color="#F96F86"/>
</linearGradient>
<linearGradient id="paint4_linear" x1="230.022" y1="130.739" x2="285.431" y2="173.007" gradientUnits="userSpaceOnUse">
<stop stop-color="#8BC4FC"/>
<stop offset="1" stop-color="#3A88D6"/>
</linearGradient>
<linearGradient id="paint5_linear" x1="419.029" y1="63.3672" x2="429.394" y2="23.0883" gradientUnits="userSpaceOnUse">
<stop stop-color="#9083DD"/>
<stop offset="1" stop-color="#5A3CB2"/>
</linearGradient>
<linearGradient id="paint6_linear" x1="412.675" y1="29.3153" x2="435.816" y2="100.228" gradientUnits="userSpaceOnUse">
<stop stop-color="#9083DD"/>
<stop offset="1" stop-color="#5A3CB2"/>
</linearGradient>
</defs>
</svg>
