<svg width="380" height="360" viewBox="0 0 380 360" fill="none" xmlns="http://www.w3.org/2000/svg">
<circle cx="222" cy="158" r="158" fill="url(#paint0_linear)"/>
<path opacity="0.8" d="M377.025 176.907L327.823 205.353C323.426 207.896 315.734 207.582 310.656 204.635L241.784 164.821C240.386 164.012 238.799 163.587 237.184 163.587C235.569 163.587 233.983 164.012 232.584 164.821L130.794 223.685C130.237 224.009 129.774 224.473 129.452 225.033C129.13 225.592 128.961 226.226 128.961 226.872C128.961 227.517 129.13 228.152 129.452 228.711C129.774 229.27 130.237 229.735 130.794 230.059L158.119 245.867L196.189 267.865L196.373 267.994L207.413 274.313C211.81 276.855 211.258 281.295 206.18 284.225L79.2372 357.57C74.1588 360.499 66.4675 360.812 62.0699 358.27L12.8863 329.823C8.48864 327.281 9.04065 322.841 14.1191 319.912L85.0149 278.919L4.20141 232.196C-0.877036 229.249 -1.42904 224.827 2.9686 222.266L10.6599 217.9L52.1522 193.949L227.984 92.1764C233.063 89.247 240.754 88.9338 245.151 91.4763L248.537 93.4292L248.942 93.6503L375.793 166.995C380.889 169.998 381.423 174.364 377.025 176.907Z" fill="#BF2E4E"/>
<path opacity="0.7" d="M377.025 162.463L327.823 190.909C323.426 193.451 315.734 193.138 310.656 190.19L241.784 150.377C240.386 149.568 238.799 149.143 237.184 149.143C235.569 149.143 233.983 149.568 232.584 150.377L130.794 209.241C130.237 209.564 129.774 210.029 129.452 210.589C129.13 211.148 128.961 211.782 128.961 212.428C128.961 213.073 129.13 213.708 129.452 214.267C129.774 214.826 130.237 215.291 130.794 215.615L158.119 231.423L196.189 253.421L196.373 253.55L207.413 259.869C211.81 262.411 211.258 266.851 206.18 269.781L79.2372 343.181C74.1588 346.11 66.4675 346.423 62.0699 343.881L12.8863 315.379C8.48864 312.837 9.04065 308.397 14.1191 305.467L85.0149 264.475L4.20141 217.752C-0.877036 214.805 -1.42904 210.383 2.9686 207.822L10.6599 203.382L52.1522 179.431L227.984 77.7323C233.063 74.8029 240.754 74.4897 245.151 77.0322L248.537 78.9851L248.942 79.2062L375.793 152.551C380.889 155.48 381.423 159.92 377.025 162.463Z" fill="url(#paint1_linear)"/>
<path opacity="0.5" d="M89.8358 258.008C89.8358 280.43 69.3932 297.84 69.3932 297.84C69.3932 297.84 48.9138 256.774 48.9138 234.352C48.9138 221.455 58.1139 216.205 69.3932 222.745C80.6725 229.285 89.8358 245.038 89.8358 258.008Z" fill="url(#paint2_linear)"/>
<path opacity="0.8" d="M80.9669 262.909C80.9669 285.349 60.5059 302.759 60.5059 302.759C60.5059 302.759 40.0449 261.693 40.0449 239.271C40.0449 226.375 49.245 221.124 60.5243 227.664C71.8036 234.205 80.9669 249.938 80.9669 262.909Z" fill="#BF2E4E"/>
<path opacity="0.7" d="M57.5803 269.283V251.891L53.3667 249.441L55.6851 245.627L62.5668 249.588V272.139L57.5803 269.283Z" fill="white"/>
<path opacity="0.5" d="M115.725 105.515C115.725 127.955 136.167 145.366 136.167 145.366C136.167 145.366 156.647 104.299 156.647 81.8775C156.647 68.981 147.447 63.7302 136.167 70.2706C124.888 76.811 115.725 92.6186 115.725 105.515Z" fill="url(#paint3_linear)"/>
<path opacity="0.8" d="M124.575 110.434C124.575 132.856 145.036 150.285 145.036 150.285C145.036 150.285 165.608 109.2 165.608 86.7782C165.608 73.8816 156.407 68.6493 145.128 75.1897C133.849 81.7301 124.575 97.464 124.575 110.434Z" fill="#BF2E4E"/>
<path opacity="0.7" d="M151.955 112.166L136.811 120.917L145.699 103.673C146.167 102.806 146.573 101.908 146.913 100.983C147.138 100.393 147.269 99.7714 147.299 99.1407C147.343 98.8439 147.304 98.5411 147.187 98.265C147.07 97.9888 146.88 97.7501 146.637 97.5747C146.353 97.4574 146.044 97.4177 145.74 97.4598C145.436 97.5019 145.149 97.6242 144.907 97.8142C144.068 98.2941 143.389 99.0121 142.957 99.8776C142.476 100.837 142.236 101.9 142.258 102.973V103.268L137.492 106.013V105.865C137.486 103.318 138.167 100.817 139.461 98.6248C140.761 96.4029 142.62 94.5607 144.852 93.2819C145.6 92.7126 146.467 92.3192 147.387 92.131C148.308 91.9428 149.259 91.9647 150.17 92.1949C151.476 92.7477 152.139 94.0373 152.139 96.3034C152.121 97.4905 151.91 98.6667 151.513 99.7855C150.971 101.352 150.281 102.864 149.452 104.299L145.883 110.895L151.955 107.358V112.166Z" fill="white"/>
<path opacity="0.5" d="M356.104 103.065C356.104 125.486 335.643 142.915 335.643 142.915C335.643 142.915 315.164 101.83 315.164 79.4088C315.164 66.5123 324.364 61.2799 335.643 67.8203C346.923 74.3607 356.104 90.0946 356.104 103.065Z" fill="url(#paint4_linear)"/>
<path opacity="0.8" d="M347.235 107.984C347.235 130.406 326.775 147.834 326.775 147.834C326.775 147.834 306.295 106.75 306.295 84.328C306.295 71.4314 315.495 66.1807 326.775 72.7211C338.054 79.2615 347.235 95.0137 347.235 107.984Z" fill="#BF2E4E"/>
<path opacity="0.7" d="M319.304 103.304L324.327 106.215V106.584C324.312 107.493 324.52 108.391 324.934 109.2C325.358 109.979 325.997 110.618 326.774 111.042C327.603 111.521 328.247 111.65 328.615 111.411C328.983 111.171 329.277 110.582 329.277 109.661C329.3 108.702 329.051 107.756 328.559 106.934C327.991 106.089 327.227 105.394 326.333 104.907L325.965 104.705L325.726 104.576V100.891L326.002 101.057C326.297 101.289 326.639 101.457 327.003 101.549C327.368 101.641 327.747 101.655 328.118 101.591C328.596 101.425 328.835 100.891 328.835 100.025C328.828 99.2998 328.618 98.5912 328.228 97.9799C327.842 97.3318 327.298 96.7928 326.646 96.4139C326.426 96.2325 326.164 96.1103 325.883 96.0587C325.603 96.0071 325.315 96.0279 325.045 96.1192C324.658 96.3218 324.474 96.8193 324.456 97.5746L319.654 94.8111C319.654 92.6923 320.334 91.4211 321.604 90.9789C322.526 90.8181 323.47 90.8496 324.379 91.0715C325.288 91.2935 326.141 91.701 326.885 92.2686C328.792 93.3313 330.428 94.819 331.669 96.6166C332.775 98.1601 333.385 100.005 333.417 101.904C333.458 102.349 333.408 102.798 333.268 103.223C333.129 103.647 332.904 104.039 332.607 104.373C332.282 104.63 331.899 104.802 331.49 104.873C331.082 104.944 330.663 104.911 330.271 104.778C331.486 105.718 332.474 106.921 333.159 108.297C333.844 109.644 334.197 111.134 334.19 112.645C334.19 114.856 333.509 116.256 332.147 116.846C331.233 117.101 330.272 117.141 329.34 116.962C328.408 116.783 327.53 116.39 326.774 115.814C324.512 114.547 322.611 112.72 321.254 110.508C319.936 108.425 319.234 106.01 319.23 103.544L319.304 103.304Z" fill="white"/>
<path opacity="0.7" d="M334.999 164.379L332.368 165.889L238.987 111.926L64.7932 212.63L150.887 262.393L153.519 263.922L150.869 265.451L61.1683 317.295L58.5371 315.785L148.256 263.922L62.1619 214.16L59.5307 212.63L62.1619 211.12L236.338 110.397L238.987 108.868L241.637 110.397L334.999 164.379Z" fill="white"/>
<path opacity="0.7" d="M153.519 263.922L150.887 265.451H150.869L153.519 263.922Z" fill="white"/>
<defs>
<linearGradient id="paint0_linear" x1="341.079" y1="-5.56012" x2="117.284" y2="303.49" gradientUnits="userSpaceOnUse">
<stop stop-color="#DDD9EA" stop-opacity="0.56"/>
<stop offset="1" stop-color="#DDD9EA" stop-opacity="0"/>
</linearGradient>
<linearGradient id="paint1_linear" x1="0.00617159" y1="210.42" x2="380.006" y2="210.42" gradientUnits="userSpaceOnUse">
<stop stop-color="#9083DD"/>
<stop offset="1" stop-color="#382391"/>
</linearGradient>
<linearGradient id="paint2_linear" x1="69.3748" y1="300.106" x2="69.3748" y2="228.014" gradientUnits="userSpaceOnUse">
<stop stop-color="#FA4664"/>
<stop offset="1" stop-color="#FBBCC7"/>
</linearGradient>
<linearGradient id="paint3_linear" x1="3144.36" y1="3466.73" x2="3144.36" y2="171.076" gradientUnits="userSpaceOnUse">
<stop stop-color="#FA4664"/>
<stop offset="1" stop-color="#FBBCC7"/>
</linearGradient>
<linearGradient id="paint4_linear" x1="7782.68" y1="3360.82" x2="7782.68" y2="65" gradientUnits="userSpaceOnUse">
<stop stop-color="#FA4664"/>
<stop offset="1" stop-color="#FBBCC7"/>
</linearGradient>
</defs>
</svg>
