<svg width="356" height="383" viewBox="0 0 356 383" fill="none" xmlns="http://www.w3.org/2000/svg">
<circle cx="175" cy="175" r="175" fill="url(#paint0_linear)"/>
<path d="M103.804 168.402C98.4177 171.446 94.2028 178.939 94.2028 185.027L94.6711 359.239C94.6711 365.327 99.1202 367.903 104.506 364.859L327.666 236.073C333.052 233.029 337.267 225.536 337.267 219.214L336.798 45.0024C336.798 38.9143 332.349 36.3386 326.963 39.3826L103.804 168.402Z" fill="#BF2E4E" fill-opacity="0.8"/>
<path d="M122.537 185.027C117.151 188.071 112.936 195.564 112.936 201.886L113.404 376.098C113.404 382.186 117.854 384.762 123.239 381.718L346.399 252.932C351.785 249.888 356 242.395 356 236.073L355.532 61.8615C355.532 55.7735 351.083 53.1978 345.697 56.2418L122.537 185.027Z" fill="url(#paint1_linear)" fill-opacity="0.7"/>
<path d="M162.768 271.664C167.604 263.406 167.635 254.434 162.837 251.623C158.038 248.813 150.227 253.229 145.39 261.487C140.554 269.744 140.523 278.717 145.321 281.527C150.12 284.338 157.931 279.922 162.768 271.664Z" fill="white" fill-opacity="0.71"/>
<path d="M140.568 259.489L134.479 269.791L152.51 280.094L177.566 236.776L171.478 233.263L152.276 266.279L140.568 259.489Z" fill="#FA4664" fill-opacity="0.71"/>
<path d="M162.796 221.305C167.633 213.047 167.664 204.075 162.865 201.264C158.066 198.454 150.255 202.87 145.419 211.128C140.582 219.385 140.551 228.358 145.35 231.168C150.148 233.979 157.959 229.563 162.796 221.305Z" fill="white" fill-opacity="0.71"/>
<path d="M140.568 209.145L134.479 219.448L152.51 229.751L177.566 186.432L171.478 182.92L152.276 215.936L140.568 209.145Z" fill="#FA4664" fill-opacity="0.71"/>
<path d="M160.876 322.214C165.712 313.956 165.743 304.983 160.945 302.173C156.146 299.363 148.335 303.778 143.498 312.036C138.662 320.294 138.631 329.266 143.429 332.077C148.228 334.887 156.039 330.471 160.876 322.214Z" fill="white" fill-opacity="0.71"/>
<path d="M138.694 310.066L132.606 320.369L150.637 330.672L175.692 287.353L169.604 283.841L150.637 316.857L138.694 310.066Z" fill="#FA4664" fill-opacity="0.71"/>
<path d="M193.957 187.369V200.247L325.09 124.381V111.737L193.957 187.369Z" fill="white" fill-opacity="0.71"/>
<path d="M193.957 237.946V250.591L325.09 174.724V162.08L193.957 237.946Z" fill="white" fill-opacity="0.71"/>
<path d="M193.957 288.29V300.934L325.09 225.302V212.423L193.957 288.29Z" fill="white" fill-opacity="0.71"/>
<defs>
<linearGradient id="paint0_linear" x1="65.5" y1="3.91592e-06" x2="280.5" y2="289.5" gradientUnits="userSpaceOnUse">
<stop stop-color="#F8D9E9" stop-opacity="0.56"/>
<stop offset="1" stop-color="#F8D9E9" stop-opacity="0"/>
</linearGradient>
<linearGradient id="paint1_linear" x1="122.168" y1="354.578" x2="326.882" y2="107.026" gradientUnits="userSpaceOnUse">
<stop stop-color="#9083DD"/>
<stop offset="1" stop-color="#382391"/>
</linearGradient>
</defs>
</svg>
