<svg width="51" height="51" viewBox="0 0 51 51" fill="none" xmlns="http://www.w3.org/2000/svg">
<path d="M13.6001 24.7738C13.6001 24.2881 13.4786 23.9238 13.4786 23.4381C13.4786 22.5881 13.6001 21.8595 13.7215 21.1309C13.7215 21.0095 13.7215 20.7667 13.4786 20.6452C12.7501 20.2809 12.1429 19.9167 11.6572 19.4309C11.0501 18.8238 10.5644 18.0952 10.2001 17.2452C9.95721 16.5167 9.71436 15.6667 9.83578 14.6952C9.83578 13.1167 10.5644 11.5381 11.6572 10.4452C12.8715 9.23095 14.5715 8.50238 16.2715 8.50238C17.8501 8.50238 19.4286 9.10952 20.5215 10.2024C20.8858 10.5667 21.2501 10.9309 21.4929 11.4167C21.6144 11.5381 21.7358 11.6595 21.9786 11.5381C22.8286 11.1738 23.8001 11.0524 24.7715 10.9309C25.0144 10.9309 25.2572 10.5667 25.1358 10.3238C23.5572 7.16666 20.1572 4.85952 16.3929 4.85952C10.8072 4.85952 6.19293 9.47381 6.19293 14.9381C6.19293 18.0952 7.65007 20.8881 9.83578 22.7095C8.25721 23.4381 6.80007 24.4095 5.58578 25.7452C2.91436 28.4167 1.33578 32.0595 1.21436 35.9452V36.0667C1.21436 36.0667 1.21436 36.1881 1.33578 36.1881L1.45721 36.3095H1.57864H4.3715C4.61436 36.3095 4.73578 36.1881 4.73578 35.9452C4.85721 33.0309 5.95007 30.3595 8.01436 28.2952C9.4715 26.8381 11.2929 25.8667 13.2358 25.3809C13.4786 25.2595 13.6001 25.0167 13.6001 24.7738ZM38.4929 24.7738C38.4929 24.2881 38.6144 23.9238 38.6144 23.4381C38.6144 22.5881 38.4929 21.8595 38.3715 21.1309C38.3715 21.0095 38.3715 20.7667 38.6144 20.6452C39.3429 20.2809 39.9501 19.9167 40.4358 19.4309C41.0429 18.8238 41.5286 18.0952 41.8929 17.2452C42.2572 16.3952 42.3786 15.5452 42.3786 14.6952C42.3786 13.1167 41.6501 11.5381 40.5572 10.4452C39.3429 9.23095 37.6429 8.50238 35.9429 8.50238C34.3644 8.50238 32.7858 9.10952 31.6929 10.2024C31.3286 10.5667 30.9644 10.9309 30.7215 11.4167C30.6001 11.5381 30.4786 11.6595 30.2358 11.5381C29.3858 11.1738 28.4144 11.0524 27.4429 10.9309C27.2001 10.9309 26.9572 10.5667 27.0786 10.3238C28.6572 7.16666 32.0572 4.85952 35.8215 4.85952C41.2858 4.73809 45.9001 9.35238 45.9001 14.8167C45.9001 17.9738 44.4429 20.7667 42.2572 22.5881C43.8358 23.3167 45.2929 24.2881 46.5072 25.6238C49.1786 28.2952 50.7572 31.9381 50.8786 35.8238V35.9452C50.8786 35.9452 50.8786 36.0667 50.7572 36.0667L50.6358 36.1881H50.5144H47.7215C47.4786 36.1881 47.3572 36.0667 47.3572 35.8238C47.2358 32.9095 46.1429 30.2381 44.0786 28.1738C42.6215 26.7167 40.8001 25.7452 38.8572 25.2595C38.6144 25.2595 38.4929 25.0167 38.4929 24.7738ZM36.0644 23.5595C36.0644 18.0952 31.6929 13.7238 26.2286 13.6024C20.7644 13.4809 16.1501 18.0952 16.1501 23.5595C16.1501 26.7167 17.6072 29.5095 19.7929 31.3309C18.2144 32.0595 16.7572 33.0309 15.5429 34.3667C12.8715 37.0381 11.2929 40.6809 11.1715 44.5667V44.6881C11.1715 44.6881 11.1715 44.8095 11.2929 44.8095L11.4144 44.9309H11.5358H14.3286C14.5715 44.9309 14.6929 44.8095 14.6929 44.5667C14.8144 41.6524 15.9072 38.9809 17.9715 36.9167C20.1572 34.7309 22.9501 33.6381 25.9858 33.6381C31.5715 33.5167 36.0644 29.0238 36.0644 23.5595ZM36.0644 23.5595C36.0644 18.0952 31.6929 13.7238 26.2286 13.6024C20.7644 13.4809 16.1501 18.0952 16.1501 23.5595C16.1501 26.7167 17.6072 29.5095 19.7929 31.3309C18.2144 32.0595 16.7572 33.0309 15.5429 34.3667C12.8715 37.0381 11.2929 40.6809 11.1715 44.5667V44.6881C11.1715 44.6881 11.1715 44.8095 11.2929 44.8095L11.4144 44.9309H11.5358H14.3286C14.5715 44.9309 14.6929 44.8095 14.6929 44.5667C14.8144 41.6524 15.9072 38.9809 17.9715 36.9167C20.1572 34.7309 22.9501 33.6381 25.9858 33.6381C31.5715 33.5167 36.0644 29.0238 36.0644 23.5595ZM16.1501 23.5595C16.1501 18.0952 20.5215 13.7238 25.9858 13.6024C31.4501 13.4809 36.0644 18.0952 36.0644 23.5595C36.0644 26.7167 34.6072 29.5095 32.4215 31.3309C34.0001 32.0595 35.4572 33.0309 36.6715 34.3667C39.3429 37.0381 40.9215 40.6809 41.0429 44.5667V44.6881C41.0429 44.6881 41.0429 44.8095 40.9215 44.8095L40.8001 44.9309H40.6786H37.8858C37.6429 44.9309 37.5215 44.8095 37.5215 44.5667C37.4001 41.6524 36.3072 38.9809 34.2429 36.9167C32.0572 34.7309 29.2644 33.6381 26.2286 33.6381C20.6429 33.5167 16.1501 29.0238 16.1501 23.5595ZM30.6001 28.0524C29.3858 29.2667 27.8072 29.8738 26.1072 29.8738C24.4072 29.8738 22.8286 29.2667 21.6144 28.0524C21.0072 27.4452 20.5215 26.7167 20.1572 25.9881C19.7929 25.2595 19.6715 24.4095 19.6715 23.5595C19.6715 21.9809 20.2786 20.4024 21.4929 19.1881C22.7072 17.9738 24.2858 17.2452 25.9858 17.2452C27.6858 17.2452 29.2644 17.8524 30.4786 19.0667C31.6929 20.2809 32.4215 21.8595 32.4215 23.5595C32.5429 25.2595 31.8144 26.8381 30.6001 28.0524Z" fill="#5B499D"/>
</svg>
