<svg width="51" height="51" viewBox="0 0 51 51" fill="none" xmlns="http://www.w3.org/2000/svg">
<path d="M20.1024 10.2137C21.4969 10.2137 22.493 9.9002 23.0906 9.27316C23.6883 8.62103 23.9871 7.52998 23.9871 6L27.0501 6C27.0501 7.52998 27.3489 8.62103 27.9466 9.27316C28.5442 9.9002 29.5403 10.2137 30.9348 10.2137L37.8452 10.2137C39.6132 10.2137 40.9081 10.7404 41.7299 11.7939C42.5766 12.8473 43 17.1532 43 19.5862L40.0864 20C40.0864 18.6958 39.8996 15.1924 39.5261 14.6156C39.1774 14.0387 38.5922 13.7502 37.7705 13.7502L30.3372 13.7502C27.7723 13.7502 26.1661 12.3582 25.5186 9.57414C24.8213 12.3582 23.2027 13.7502 20.6627 13.7502L13.2294 13.7502C12.4325 13.7502 11.8473 14.0387 11.4738 14.6156C11.1002 15.1924 10.9136 18.6958 10.9136 20L8 19.5862C8 17.1532 8.42326 12.8473 9.26994 11.7939C10.0917 10.7404 11.3866 10.2137 13.1547 10.2137L20.1024 10.2137Z" fill="#5B499D"/>
<rect x="3.5" y="26.5002" width="16" height="13" rx="1.5" stroke="#5B499D" stroke-width="3"/>
<rect x="31.5" y="26.5002" width="16" height="13" rx="1.5" stroke="#5B499D" stroke-width="3"/>
</svg>
