<svg width="51" height="51" viewBox="0 0 51 51" fill="none" xmlns="http://www.w3.org/2000/svg">
<path d="M25.5 3.1875C13.1783 3.1875 3.1875 13.1783 3.1875 25.5C3.1875 37.8217 13.1783 47.8125 25.5 47.8125C37.8217 47.8125 47.8125 37.8217 47.8125 25.5C47.8125 13.1783 37.8217 3.1875 25.5 3.1875ZM25.5 44.0273C15.2701 44.0273 6.97266 35.7299 6.97266 25.5C6.97266 15.2701 15.2701 6.97266 25.5 6.97266C35.7299 6.97266 44.0273 15.2701 44.0273 25.5C44.0273 35.7299 35.7299 44.0273 25.5 44.0273Z" fill="#5B499D"/>
<path d="M34.2009 31.8052L27.0987 26.6704V14.3437C27.0987 14.1246 26.9194 13.9453 26.7003 13.9453H24.3047C24.0855 13.9453 23.9062 14.1246 23.9062 14.3437V28.0599C23.9062 28.1894 23.966 28.309 24.0706 28.3837L32.3083 34.3901C32.4876 34.5196 32.7366 34.4798 32.8661 34.3054L34.2905 32.3631C34.42 32.1788 34.3802 31.9298 34.2009 31.8052V31.8052Z" fill="#5B499D"/>
</svg>
