<svg width="51" height="51" viewBox="0 0 51 51" fill="none" xmlns="http://www.w3.org/2000/svg">
<path d="M34.2656 15.5391V13.1484C34.2656 12.9293 34.0863 12.75 33.8672 12.75H14.7422C14.523 12.75 14.3438 12.9293 14.3438 13.1484V15.5391C14.3438 15.7582 14.523 15.9375 14.7422 15.9375H33.8672C34.0863 15.9375 34.2656 15.7582 34.2656 15.5391ZM14.7422 19.9219C14.523 19.9219 14.3438 20.1012 14.3438 20.3203V22.7109C14.3438 22.9301 14.523 23.1094 14.7422 23.1094H23.9062C24.1254 23.1094 24.3047 22.9301 24.3047 22.7109V20.3203C24.3047 20.1012 24.1254 19.9219 23.9062 19.9219H14.7422ZM33.4688 25.6992C27.5271 25.6992 22.7109 30.5153 22.7109 36.457C22.7109 42.3987 27.5271 47.2148 33.4688 47.2148C39.4104 47.2148 44.2266 42.3987 44.2266 36.457C44.2266 30.5153 39.4104 25.6992 33.4688 25.6992ZM38.8228 41.811C37.3934 43.2404 35.4908 44.0273 33.4688 44.0273C31.4467 44.0273 29.5441 43.2404 28.1147 41.811C26.6854 40.3816 25.8984 38.4791 25.8984 36.457C25.8984 34.435 26.6854 32.5324 28.1147 31.103C29.5441 29.6736 31.4467 28.8867 33.4688 28.8867C35.4908 28.8867 37.3934 29.6736 38.8228 31.103C40.2521 32.5324 41.0391 34.435 41.0391 36.457C41.0391 38.4791 40.2521 40.3816 38.8228 41.811ZM37.9014 32.6719H35.695C35.5655 32.6719 35.446 32.7316 35.3713 32.8362L32.2087 37.2091L31.0582 35.6203C31.0213 35.569 30.9727 35.5273 30.9164 35.4987C30.86 35.4701 30.7977 35.4554 30.7345 35.456H28.5381C28.2144 35.456 28.0251 35.8245 28.2144 36.0885L31.8899 41.1735C32.0493 41.3927 32.373 41.3927 32.5324 41.1735L38.2201 33.3044C38.4144 33.0404 38.2251 32.6719 37.9014 32.6719ZM21.9141 42.4336H10.3594V7.37109H38.25V24.5039C38.25 24.723 38.4293 24.9023 38.6484 24.9023H41.4375C41.6566 24.9023 41.8359 24.723 41.8359 24.5039V5.37891C41.8359 4.49736 41.1237 3.78516 40.2422 3.78516H8.36719C7.48564 3.78516 6.77344 4.49736 6.77344 5.37891V44.4258C6.77344 45.3073 7.48564 46.0195 8.36719 46.0195H21.9141C22.1332 46.0195 22.3125 45.8402 22.3125 45.6211V42.832C22.3125 42.6129 22.1332 42.4336 21.9141 42.4336Z" fill="#5B499D"/>
</svg>
