<svg width="51" height="51" viewBox="0 0 51 51" fill="none" xmlns="http://www.w3.org/2000/svg">
<path d="M23.9062 15.9375H27.0938V28.6875H23.9062V15.9375Z" fill="#5B499D"/>
<path d="M31.875 22.3125H35.0625V28.6875H31.875V22.3125Z" fill="#5B499D"/>
<path d="M15.9375 19.125H19.125V28.6875H15.9375V19.125Z" fill="#5B499D"/>
<path d="M39.8438 6.375H27.0938V3.1875H23.9062V6.375H11.1562C10.3109 6.375 9.50012 6.71082 8.90235 7.3086C8.30457 7.90637 7.96875 8.71712 7.96875 9.5625V31.875C7.96875 32.7204 8.30457 33.5311 8.90235 34.1289C9.50012 34.7267 10.3109 35.0625 11.1562 35.0625H23.9062V44.625H17.5312V47.8125H33.4688V44.625H27.0938V35.0625H39.8438C40.6891 35.0625 41.4999 34.7267 42.0977 34.1289C42.6954 33.5311 43.0312 32.7204 43.0312 31.875V9.5625C43.0312 8.71712 42.6954 7.90637 42.0977 7.3086C41.4999 6.71082 40.6891 6.375 39.8438 6.375ZM39.8438 31.875H11.1562V9.5625H39.8438V31.875Z" fill="#5B499D"/>
</svg>
