<svg width="51" height="51" viewBox="0 0 51 51" fill="none" xmlns="http://www.w3.org/2000/svg">
<path d="M43.2305 7.96875H38.6484V5.97656C38.6484 5.75742 38.4691 5.57812 38.25 5.57812H12.75C12.5309 5.57812 12.3516 5.75742 12.3516 5.97656V7.96875H7.76953C7.18833 7.96875 6.63094 8.19963 6.21997 8.6106C5.809 9.02157 5.57812 9.57896 5.57812 10.1602V17.5312C5.57812 21.6003 8.56641 24.982 12.4611 25.5996C13.2331 31.3869 17.8799 35.944 23.707 36.5815V41.821H13.9453C13.0638 41.821 12.3516 42.5332 12.3516 43.4147V45.0234C12.3516 45.2426 12.5309 45.4219 12.75 45.4219H38.25C38.4691 45.4219 38.6484 45.2426 38.6484 45.0234V43.4147C38.6484 42.5332 37.9362 41.821 37.0547 41.821H27.293V36.5815C33.1201 35.944 37.7669 31.3869 38.5389 25.5996C42.4336 24.982 45.4219 21.6003 45.4219 17.5312V10.1602C45.4219 9.57896 45.191 9.02157 44.78 8.6106C44.3691 8.19963 43.8117 7.96875 43.2305 7.96875ZM9.16406 17.5312V11.5547H12.3516V21.8941C11.4264 21.5986 10.6191 21.0168 10.0462 20.2326C9.47327 19.4484 9.16436 18.5024 9.16406 17.5312ZM35.0625 23.9062C35.0625 26.3517 34.1112 28.6576 32.378 30.3858C30.6448 32.119 28.3438 33.0703 25.8984 33.0703H25.1016C22.6562 33.0703 20.3502 32.119 18.622 30.3858C16.8888 28.6526 15.9375 26.3517 15.9375 23.9062V9.16406H35.0625V23.9062ZM41.8359 17.5312C41.8359 19.5732 40.4962 21.3064 38.6484 21.8941V11.5547H41.8359V17.5312Z" fill="#5B499D"/>
</svg>
